<?xml version="1.0" standalone="no"?>
<!DOCTYPE svg PUBLIC "-//W3C//DTD SVG 20010904//EN"
 "http://www.w3.org/TR/2001/REC-SVG-20010904/DTD/svg10.dtd">
<svg version="1.0" xmlns="http://www.w3.org/2000/svg"
 width="420.000000pt" height="420.000000pt" viewBox="0 0 420.000000 420.000000"
 preserveAspectRatio="xMidYMid meet">
<metadata>
Created by potrace 1.14, written by Peter Selinger 2001-2017
</metadata>
<g transform="translate(0.000000,420.000000) scale(0.100000,-0.100000)"
fill="#000000" stroke="none">
<path d="M2234 3715 c-34 -7 -95 -28 -135 -45 -41 -18 -94 -34 -119 -37 -113
-11 -262 -74 -339 -143 -32 -28 -45 -34 -65 -31 -4 1 -32 -5 -61 -14 -53 -15
-65 -28 -65 -70 0 -23 -27 -96 -39 -105 -3 -3 -15 -18 -27 -35 -20 -30 -26
-41 -78 -160 -15 -33 -31 -68 -36 -77 -5 -9 -12 -31 -15 -49 -3 -18 -8 -35
-10 -39 -2 -4 -7 -20 -9 -36 -3 -16 -8 -40 -11 -54 -3 -14 -7 -62 -10 -107
-13 -217 -15 -252 -22 -313 -3 -36 -6 -84 -5 -107 1 -24 -3 -43 -8 -43 -6 0
-10 4 -10 9 0 5 -12 12 -28 16 -22 5 -31 1 -52 -24 -14 -16 -27 -40 -29 -53
-7 -38 -5 -210 3 -258 3 -25 9 -63 12 -85 4 -22 15 -63 26 -91 20 -55 38 -67
94 -64 32 1 32 1 68 -108 80 -239 180 -396 377 -592 91 -91 193 -170 218 -170
6 0 11 -4 11 -8 0 -8 71 -45 92 -48 4 -1 9 -2 11 -4 7 -6 51 -13 112 -17 55
-4 84 0 135 17 69 23 220 101 250 129 9 9 30 25 45 36 55 39 144 114 190 161
69 71 105 113 105 122 0 6 3 12 8 14 11 5 72 95 72 106 0 6 6 17 13 24 17 18
53 90 49 100 -1 4 2 8 7 8 9 0 26 48 23 63 -1 4 3 7 9 7 5 0 7 5 3 12 -5 8 5
9 39 5 39 -6 50 -3 71 16 25 23 68 116 82 177 11 49 11 50 14 53 1 1 3 9 5 17
2 8 7 26 10 40 34 140 26 228 -23 254 -24 13 -30 12 -54 -6 l-28 -19 9 23 c4
13 12 70 16 128 4 58 8 116 10 130 31 268 25 391 -25 540 -29 86 -42 212 -24
230 5 5 20 11 34 14 67 12 71 27 24 96 -90 133 -235 234 -394 275 -8 2 -40 11
-70 20 -30 8 -71 18 -90 21 -62 9 -64 11 -41 48 34 55 25 79 -34 89 -16 3 -43
10 -60 15 -46 14 -163 13 -231 -3z"/>
</g>
</svg>
