<?xml version="1.0" encoding="UTF-8"?><svg id="a" xmlns="http://www.w3.org/2000/svg" viewBox="0 0 307.76 75.01"><path d="m36.72,29.47c1.2-1.68,2.34-3.54,2.4-5.82.12-2.58-.36-5.04-.9-7.56-.78-3.54-2.88-5.88-5.82-7.44-3.72-1.98-7.74-2.76-11.94-2.22-.72.06-1.44.36-2.16.3-2.76-.18-5.34.84-7.92,1.44-4.02.9-6.78,4.02-9.6,6.84-.66.66-1.02,1.56-.6,2.58.48,1.2,1.32,2.16,2.64,2.28,1.26.12,2.46-.3,3.24-1.8-1.08-.42-1.98-.78-2.88-1.14v-.54c2.34-.6,4.08-3.12,6.9-2.1-.18,3.84-.36,7.5-.54,11.16-.06.66-.12,1.32-.12,1.98-.06,1.32-.12,2.7-.12,4.02,0,.48.12.96.12,1.44,0,2.58-.18,5.16,0,7.68.3,4.86.78,9.72,1.2,14.58.06.42-.06.84,0,1.26.24,1.68.36,3.42.78,5.1.36,1.44,1.8,2.46,2.76,2.34,1.26-.18,2.4-1.44,2.82-2.82.84-2.82-.06-5.58-.24-8.28-.24-3.06,0-6.12-.36-9.18-.06-.24.12-.54.36-1.2.78.3,1.44.48,2.04.78,1.2.66,2.34,1.44,3.54,2.1,2.16,1.2,4.38,2.4,6.54,3.6,2.28,1.32,4.56,2.64,6.9,3.9.6.3,1.32.72,1.92-.18.54-.78.36-1.44-.6-2.16-.66-.54-1.38-.96-2.04-1.5-1.62-1.26-3.24-2.52-5.28-3.12-.84-.24-1.68-.6-2.34-1.14-1.56-1.26-3.24-2.28-5.1-3-.06-.06-.06-.24-.18-.48.78-.18,1.56-.3,2.28-.48.54-.12,1.14-.24,1.56-.54l-.3-.12c1.32-.96,2.52-2.04,3.84-3,2.88-2.04,5.16-4.74,7.2-7.56Zm-13.38,6.48c-1.5,1.26-3.18,2.34-4.86,3.42l.12.12c-.48.3-1.2.3-1.86.42-.24-.42-.36-.54-.36-.66-.06-2.58-.12-5.16-.12-7.74,0-1.02.24-2.04.24-3.06.06-2.94-.12-5.88.12-8.76.18-2.22.06-4.38-.3-6.84,1.5-.3,2.94-.72,4.38-.78,3.54-.24,6.9.42,10.26,1.68,1.68.66,3.06,1.38,4.14,2.82.48.6.66,1.14.6,1.92-.36,4.26-2.4,7.74-5.16,10.74-2.22,2.4-4.74,4.56-7.2,6.72Zm63.9,12.9l-.06-.54c-.54-.12-.96-.48-1.5-.72-.3,0-.6-.12-.9-.18-.66-.06-1.32-.3-1.98-.18-.24.06-.42-.12-.72-.12-.24.18-.54.18-.84.18-.48,0-.96,0-1.44.06-.54.06-1.02.24-1.5.36-.3.06-.66.12-.96-.06v-3.48c0-.42-.18-.84-.06-1.26.06-.12,0-.3-.06-.48-.12-.36-.06-.72,0-1.08.12-.54.3-1.08.24-1.68v-.9c0-.18,0-.36.06-.48.24-.6.12-1.2.12-1.8,0-.12-.12-.18-.06-.3.12-.3.06-.6.06-.9v-2.7c0-.18-.06-.42,0-.6.24-.54.12-1.14.12-1.74,0-.18-.06-.42,0-.6.12-.3.12-.6.12-.9,0-.18-.06-.42,0-.6.18-.36.12-.72.12-1.08,0-.24-.06-.48,0-.66.24-.54.12-1.14.12-1.68-.18-.24-.36-.48-.54-.72-.42-.18-.78-.48-1.08-.78-.24,0-.48-.06-.72.06-.18.24-.36.48-.54.72v.48c-.12.18-.3.18-.3.36s.06.42,0,.6c-.3.72-.54,1.5-.96,2.16-.3.42-.54.9-.72,1.38-.12.36-.3.66-.48.96-.06.06-.12.18-.18.3-.48,1.02-.96,2.04-1.44,3.06-.3.6-.66,1.2-.84,1.86-.06.18-.18.36-.3.54-.42.6-.78,1.26-1.38,1.74-.12.12-.24.24-.36.36-.54.78-1.14,1.44-1.8,2.1-.42.36-.84.72-1.2,1.14-.36.42-.78.72-1.38.78-.18-.36-.54-.6-.54-1.08-.24-.54-.36-1.14-.3-1.74,0-.12-.06-.24-.12-.36-.06-.24-.06-.48.06-.66.18-.3.12-.6.12-.9v-2.34c0-.3.06-.54.12-.84.12-.6.3-1.2.24-1.8,0-.3-.06-.6.06-.9.18-.48.06-1.02.06-1.56-.18-.3-.06-.66-.12-1.02-.18-.36-.36-.66-.3-1.02-.3-.42-.6-.84-.84-1.2-.42-.3-.84-.24-1.26-.24-.36.18-.78.3-1.14.72-.06.24-.12.48-.18.72-.24.18-.48.36-.66.6-.12.12-.3.18-.42.24-.18.12-.36.24-.54.36-.78.54-1.56,1.14-2.46,1.5-.84.36-1.68.66-2.52,1.02-.3-.36-.54-.78-.84-1.08-.36-.36-.6-.72-.66-1.08-.24-.42-.6-.48-.84-.72-.66-.24-1.32-.36-2.04-.48-.3.18-.72.06-1.08.24-.18-.12-.36-.24-.54-.36h-.66c-.36.06-.6.3-.84.48-.18-.12-.36-.24-.54-.36h-.36c-.3.18-.48.42-.72.54-.24.12-.42.36-.6.6-.12.12-.24.24-.3.36-.3.54-.66,1.02-.9,1.62-.18.42-.24.9-.42,1.32-.36.78-.66,1.62-.96,2.46-.06.18-.18.42-.18.66,0,.6-.06,1.2-.18,1.74v.18c.06.66-.24,1.26-.18,1.92-.18.36-.12.78-.12,1.14,0,.3.06.6-.06.9-.06.18-.06.42.06.6s.12.42.12.66c0,.18,0,.36.06.54.06.42.18.84.24,1.26.18.9.48,1.74.96,2.52.24.42.54.78.78,1.14.48.72,1.2,1.08,1.92,1.38.3.12.6.24.9.36.36.12.72.3,1.14.3h2.52c.18-.12.3-.24.42-.3.66-.3,1.14-.78,1.62-1.26.12-.12.24-.24.3-.36.3-.72.78-1.32,1.2-1.98.12-.18.24-.42.3-.66.12-.66.36-1.26.78-1.8-.06-.36.06-.72.12-1.08.06-.42.18-.84.3-1.26.12-.48.24-.96.18-1.5,0-.3-.06-.66.06-.96.18-.42.12-.84.12-1.26,0-.3,0-.54.12-.78.06-.18.06-.42,0-.6-.18-.36-.18-.72-.18-1.08,0-.3-.06-.54-.18-.9.54-.24.96-.54,1.5-.66.3-.06.54-.3.9-.3s.54-.36.84-.48c.18-.06.42-.18.6-.3.36-.3.72-.6,1.08-.9l-.18,1.26c-.06.18-.18.36-.18.54-.06.72.06,1.44-.12,2.16.18.54.12,1.14.12,1.74,0,.36.24.66.12,1.02-.06.18.06.36.12.54.06.12.12.24.12.36,0,.42.18.78.24,1.2.12.72.6,1.32.9,1.98.06.12.18.24.3.36s.24.24.36.36c.3.48.78.78,1.2,1.08.3.18.66.3,1.02.36.96.12,1.86-.12,2.7-.54.24-.12.42-.24.6-.36.54-.36.84-1.02,1.44-1.32.12-.18.18-.3.24-.42.24-.18.42-.36.6-.48.36-.3.54-.72.84-1.02.3-.24.48-.6.66-.96.36-.66.84-1.26,1.38-1.8.24-.24.48-.48.66-.78.12-.18.3-.36.54-.42.12.06.12.18.12.24-.12.24-.18.48-.18.78.06.78-.24,1.5-.18,2.28v.18c-.18.24-.12.54-.12.84v4.68c0,.18.06.42,0,.6-.18.42-.12.84-.12,1.26v1.26c-.06.24-.12.48-.18.78-.12.06-.24.12-.36.18-.66.18-1.32.42-1.98.66-.96.3-1.86.72-2.76,1.14-1.2.54-2.34,1.2-3.48,1.8-.48.24-.9.54-1.32.84-1.08.78-2.16,1.56-3.24,2.34-.24.18-.42.42-.6.6-.06.24-.12.42-.18.6.06.12.12.24.18.42-.24.18-.24.48-.36.72-.3.66-.6,1.32-.54,2.1,0,.12-.06.24-.12.36-.12.18.12.42-.06.6v.12c.18.36.12.78.12,1.2s.18.78.24,1.2c.48.96.66,2.04,1.32,2.88.6.54,1.26,1.02,1.62,1.8.12.3.36.48.6.66.24.12.48.24.66.42.42.42,1.02.6,1.5.84.48.06.9,0,1.32-.18.3.24.66.24.96.24.36,0,.72.06,1.02.18.54-.24,1.08-.3,1.56-.6.06-.06.12-.06.18-.06.78-.18,1.26-.54,1.74-1.2.42-.6.84-1.26,1.38-1.8.12-.3.24-.6.36-.9.12-.12.24-.3.3-.36.12-.3.18-.54.3-.72.54-.66.72-1.5,1.08-2.22.36-.66.54-1.44,1.02-2.1.06-.06.06-.18.06-.3.12-.36.18-.72.36-1.02.18-.36.3-.72.36-1.08.06-.48.24-.84.48-1.2.06-.54.12-1.08.24-1.62.12-.66.42-1.26.48-1.98.36-.66.24-1.44.48-2.1-.06-.42.12-.78.24-1.14.36-.36.84-.3,1.14-.66.06-.06.18-.06.24-.06.66-.18,1.32-.3,1.98-.48.48-.18.96-.36,1.5-.3h.18c.72-.3,1.5.06,2.22-.18.96.18,1.92.06,2.88.12.06,0,.12-.06.18-.06,0-.24-.06-.36-.18-.36Zm-40.38-18.42h.12c.3-.54.9-.6,1.44-.78.66.24,1.32.36,1.8.96v.6c.18.3.36.54.42.84-.06.3-.3.36-.54.3-.54-.12-1.08-.18-1.62-.3-.6-.18-1.14-.48-1.56-.84-.12-.3-.06-.54-.06-.78Zm4.98,7.2v.3c0,.66-.12,1.32-.36,1.92.06.54-.24,1.08-.18,1.62-.54.9-.72,1.86-.9,2.88-.12.18-.3.42-.42.72-.3.72-.6,1.44-1.2,1.98-.18.18-.24.42-.42.6-.36.36-.72.66-1.2.9h-.54c-.18-.06-.3-.12-.48-.24-.18-.42-.6-.72-.78-1.2-.18-.48-.36-.96-.48-1.44-.06-.48-.24-.9-.24-1.38,0-.24-.06-.42-.12-.66-.12-.36-.12-.78,0-1.14.12-.36.12-.66.12-.96v-2.52c0-.54.12-1.08.3-1.62.06-.24.12-.54.24-.78.12-.24.18-.48.12-.72-.06-.36.12-.66.12-1.02.06-.48.24-.9.24-1.38,0-.18.12-.36.18-.6.24,0,.42.12.6.24.42.36.84.72,1.38.84.3.3.72.3,1.08.42.36.12.72.24.96.36.24.06.36-.12.54-.06.36.18.72.06,1.08-.06.24.06.12.3.24.42s.18.3.24.48v1.2c0,.3.06.6-.12.9Zm19.68,16.44h-.12c-.06.24-.06.48-.06.72,0,.36.06.78-.12,1.14-.06.06-.06.18-.06.24.06.48-.24.96-.18,1.44-.18.3-.12.66-.12.96,0,.54.12,1.08-.12,1.56-.06.12-.06.3-.06.42.06.48-.06.96-.24,1.44-.18.54-.24,1.14-.54,1.68-.12.24-.18.54-.18.78-.06.6-.18,1.2-.48,1.74,0,.42-.18.78-.42,1.14-.48.36-1.08.48-1.56.9-.6,0-1.26,0-1.92.06-.66.06-1.26-.12-1.86-.18-.54-.42-1.02-.96-1.5-1.5-.24-.66-.48-1.32-.84-1.92-.3-.42-.48-.96-.6-1.44-.12-.66-.3-1.32-.6-1.92-.24-.54-.24-1.08-.42-1.62-.06-.12-.06-.24-.06-.3.36-.36.72-.66,1.02-1.02.54-.6,1.26-1.02,1.98-1.44.3-.18.6-.36.9-.54.36-.24.72-.42,1.08-.6.6-.3,1.2-.54,1.8-.84.96-.48,1.92-1.02,2.88-1.5.24-.12.48-.18.72-.3.48-.18.96-.42,1.44-.6h.24c.06.48.12,1.02,0,1.5ZM139.56,11.65c.18.48.18.96,0,1.44-.12.36-.12.78-.36,1.26-.06.06-.18.24-.3.42-.24.84-.66,1.56-1.38,2.1-.54.42-1.02.96-1.5,1.44-.6.54-1.14,1.14-1.68,1.68-.3.12-.54.3-.84.36-.36.12-.66.24-.84.54h-.84c-.54-.24-.78-.72-1.14-1.14v-1.14c.24-.48.54-.96.96-1.38.3-.3.54-.6.78-.9.06-.12.06-.24.12-.36h.36c.12-.06.24-.12.36-.24h.6c.96-.84,1.8-1.74,2.28-3.06.06-.24,0-.54.12-.84.18-.42,0-.84-.18-1.26-.12-.18-.24-.36-.36-.54-.18-.24-.3-.54-.36-.9-.78-.72-1.68-1.2-2.82-1.2h-1.98c-.18,0-.36,0-.54-.12-.24.06-.48.18-.78.18h-1.26c-.24,0-.48,0-.72.12-.12.06-.3.06-.48.06h-1.02c-.36.24-.66.42-1.02.54-.6.24-1.2.54-1.74.9q-.48.36-1.02.48c-.72.6-1.44,1.14-2.1,1.8-.12.12-.24.18-.36.24-.48.24-.9.6-1.44.78-.36.12-.72.36-1.02.6s-.6.54-.84.9c-.54.78-1.26,1.38-1.98,1.98-.54.42-1.02.84-1.5,1.32-.48.48-.9,1.02-1.32,1.56-.54.72-1.02,1.5-1.5,2.28-.12.18-.3.36-.48.48-.72.66-1.02,1.56-1.32,2.46-.12.36-.12.78-.18,1.14-.06.36-.18.72-.36,1.02l-.24.06c-.3.42-.42.9-.6,1.38.12.36.24.78.42,1.08.24.24.42.18.66.24.3.24.6.48.96.66.42.18.84.3,1.32.3h6.3c.42,0,.78.06,1.14.18.3.12.6.24.84.18.36.18.66.36.96.48.48.06.96-.06,1.38.18.06.06.18.06.3.06.42-.06.78.06,1.14.18.24.12.48.18.72.18.36-.06.72,0,1.08.12.24.12.48.18.78.24.42.06.84.12,1.2.42.06.06.18.06.3.12.36.12.72.24,1.08.36.3.12.6.3.9.36.3.06.36.48.66.42.42.48,1.08.6,1.62.96,1.32.9,2.52,1.92,3.54,3.18.12.12.24.24.36.36.36.3.6.66.84,1.02.24.36.54.72.78,1.14.24.48.42.96.66,1.56.12,1.02.48,2.16.3,3.42-.3.42-.24,1.08-.6,1.56-.06.36-.24.66-.48.96-.36.48-.66,1.02-1.02,1.56-.24.36-.54.66-.9.96-.06.06-.18.06-.3.12-.24.3-.48.66-.78.96-.42.42-.9.84-1.56.9-.18,0-.3.12-.48.18-.12.18-.24.36-.36.54-.36.36-.84.66-1.32.9-.12.06-.24.12-.42.18-.42.18-.78.42-1.14.72-.48.42-.96.9-1.62,1.02-.78.06-1.44.42-2.1.78-.06.06-.12.06-.24.12-.42-.24-.9-.12-1.32-.36-.48,0-.96-.06-1.44.06-.42.12-.9.12-1.26.36h-.3c-.24-.06-.48-.18-.78-.3h-.96c-.66-.36-1.38-.6-2.1-.72-.18-.06-.18-.3-.36-.42-.12-.12-.24-.24-.36-.3-.48-.3-.84-.66-1.14-1.14-.18-.24-.42-.42-.66-.66-.3-.3-.6-.6-.84-1.02-.24-.48-.66-.84-1.02-1.2-.24-.24-.54-.48-.6-.9v-1.14c.06-.12.12-.24.18-.36.24-.18.54-.3.84-.24.3-.3.6-.54.9-.78.18.06.36.18.54.18.36,0,.48.42.84.48.18.42.72.48.96.84.18.06.3.12.42.18,1.02.96,2.34,1.92,3.06,2.22h1.44c.42-.18.78-.48,1.2-.66s.72-.54,1.14-.72c.42-.18.72-.54,1.14-.54.72-.54,1.32-1.08,1.98-1.56.54-.42,1.08-.9,1.56-1.38.84-.84,1.68-1.62,2.4-2.52.36-.48.72-.9.9-1.5,0-.06.12-.12.24-.24.06-.24,0-.54.12-.84.3-.72.24-1.44-.06-2.16-.06-.12-.12-.24-.18-.42-.3-.36-.72-.6-1.2-.78-.3-.12-.66-.12-.9-.42-.3-.06-.6-.24-.96-.18-.24,0-.48-.06-.72-.12-.3-.12-.66-.24-1.02-.24s-.72-.12-1.08-.24c-.24-.06-.48-.06-.72-.06s-.42-.18-.66-.12c-.36.06-.66-.12-.96-.24-.48-.18-.96-.42-1.5-.66-.96.06-1.98-.06-3,.12-.48-.18-1.02.06-1.5-.18-.18-.06-.36-.06-.48,0-.24.12-.54.06-.84.06h-1.8c-.24,0-.48,0-.72-.12-.06,0-.18.06-.36.12-.18,0-.42-.12-.72-.06-.54.06-1.02-.12-1.5-.3-.18-.12-.36-.18-.6-.24-.66-.12-1.32-.18-1.86-.6h-.06c-.54-.18-.96-.54-1.44-.9-.36-.3-.66-.66-1.02-.96-.36-.3-.72-.6-.9-1.02,0-.06-.06-.12-.12-.18-.54-.48-.84-1.14-1.38-1.62-.12-.12-.24-.3-.24-.48-.06-.3-.24-.54-.36-.84v-1.02c0-.24,0-.48-.12-.66-.06-.12-.06-.24-.06-.36,0-.66,0-1.32.06-1.98,0-.42.18-.84.12-1.26.36-.54.42-1.14.6-1.74.06-.06.12-.12.24-.24,0-.42.18-.78.36-1.14.42-.78.9-1.5,1.32-2.34.18-.18.42-.42.66-.66.24-.24.42-.54.66-.78.3-.3.6-.6.9-.9.3-.3.6-.66.96-.96.3-.24.54-.6.84-.9.9-.78,1.8-1.56,2.88-2.16.42-.24.84-.54,1.26-.78.54-.36,1.08-.72,1.62-1.08.24-.12.48-.3.72-.48.3-.24.6-.54,1.02-.6.18,0,.36-.12.48-.24.18-.12.36-.24.54-.24.06,0,.18,0,.24-.06.36-.3.78-.42,1.2-.48.12,0,.24-.06.36-.12.54-.3,1.14-.54,1.74-.72.36-.12.54-.48.9-.48.6-.36,1.26-.48,1.92-.66.36-.12.78-.12,1.14-.18.36-.12.72-.12,1.08-.18.66-.12,1.32-.18,1.98-.42.24-.06.48-.06.72-.06h5.58c.48,0,.9.12,1.32.3.36.12.72.3,1.08.48.48.24.96.48,1.44.72.06.06.12.18.18.3.06.12.06.24.12.36.12.12.36.18.48.36.18.36.48.66.66,1.02.3.6.78,1.2.72,1.98-.06.36,0,.72.12,1.08Zm27.6,41.4c-.36.18-.78.36-1.14.66-.6.48-1.32.84-1.92,1.32-.18,0-.3.06-.48-.06-.18-.48-.36-.96-.54-1.44-.06-.12-.06-.24-.06-.36,0-.48.06-.96-.18-1.38.12-.48-.12-.96-.06-1.44,0-.24-.06-.48-.06-.72,0-.18-.18-.3-.12-.48.06-.06.12-.12.12-.18-.12-.42-.3-.78-.3-1.14v-.24c-.06-.6-.3-1.2-.18-1.86v-.18c-.24-.42-.18-.84-.18-1.26,0-.12,0-.24-.06-.36-.24-.54-.12-1.08-.12-1.62,0-.36.06-.72-.12-1.08-.06-.06-.06-.18-.06-.24-.06-.84.12-1.68-.12-2.52.06-.12.12-.24.18-.36-.18-.18-.18-.42-.18-.66,0-.3-.06-.54-.18-.78.06-.18.12-.3.18-.42-.18-.24-.24-.54-.24-.84,0-.18-.06-.36-.06-.54.12-.78-.18-1.56-.18-2.34,0-.06-.06-.12-.06-.18-.12-.48-.24-.96-.3-1.44-.06-.42-.12-.9-.3-1.32-.06-.24-.18-.42-.3-.6,0-.06.06-.12.06-.18-.06-.24-.06-.54-.12-.78-.18-.72-.54-1.32-1.32-1.56-.24-.06-.48-.12-.72-.18l-.42-.42c-.24,0-.42-.18-.66-.18-.18.12-.36.18-.54.18s-.36,0-.54.06c-.72.12-1.38.42-2.04.96-.12.12-.3.24-.48.36-.48.36-.96.72-1.38,1.14-.42.42-.9.84-1.2,1.38-.78.78-1.2,1.8-1.8,2.7.06.36-.3.54-.36.84-.06.3-.24.54-.36.84-.12.3-.24.54-.36.84-.06.12-.18.3-.18.48,0,.3-.18.54-.3.84-.12.18-.18.42-.24.6-.3.66-.48,1.38-.66,2.1,0,.06,0,.12-.06.18-.06.06-.06.24-.24.18-.12-.72.12-1.5-.18-2.28.3-.3.18-.66.06-.96.12-.18.24-.36.36-.54v-.96c.12-.36.36-.6.36-.9,0-.48.24-.84.36-1.26,0-.42-.06-.9.18-1.32-.12-.54.18-1.08.12-1.62,0-.06.06-.18.12-.24.18-.3.06-.6-.06-.9.18-.3.12-.66.12-.96.06-.66.3-1.26.72-1.74.24-.36.54-.66.84-1.02.48-.54.9-1.14,1.32-1.74l.36-.36c1.02-1.08,2.16-2.04,3.06-3.24.18-.3.54-.42.78-.66.96-.9,1.92-1.86,2.64-3,.12-.18.24-.36.42-.54.36-.42.72-.9,1.08-1.38.36-.48.66-1.02,1.2-1.32.12-.06.18-.18.24-.3.12-.3.42-.48.66-.72.36-.42.72-.84,1.08-1.26.06-.06.06-.12.06-.18.18-.42.6-.72.6-1.2.42-.9.54-1.92,1.08-2.7-.12-.42-.36-.66-.6-.9-.06-.18-.06-.36-.06-.54-.12-.12-.3-.18-.36-.3-.3-.42-.78-.72-1.02-1.14-.3-.54-.84-.72-1.2-1.14-.6-.24-1.02-.78-1.5-1.14-.42-.3-.78-.66-1.2-.9-.42-.06-.78.12-1.14.3-.42.18-.84.36-1.26.54-.42.18-.78.42-1.14.66-.12.06-.24.12-.3.18-1.02.72-1.86,1.62-2.82,2.34-.06.06-.12.12-.12.18-.18.36-.48.6-.72.9-.24.3-.48.6-.66.9-.24.36-.6.66-.84,1.02-.42.72-1.02,1.32-1.5,2.04-.36.48-.72.96-1.02,1.5-.3.54-.72,1.02-.84,1.68,0,.06-.06.12-.12.18-.18.18-.24.42-.3.66-.24.72-.6,1.38-.72,2.1-.3.48-.36,1.08-.54,1.62-.18.48-.3.96-.36,1.44-.06.6-.18,1.2-.3,1.8.12.3,0,.54-.06.78-.12.48-.18.96-.18,1.44,0,.12,0,.24-.06.3-.18.36-.12.72-.12,1.08,0,.18.06.42,0,.6-.18.42-.12.84-.12,1.26,0,.18.06.42,0,.6-.18.48-.12.96-.12,1.44s-.06.96-.18,1.44c-.06.18-.18.36-.18.54,0,.6-.3,1.14-.24,1.74,0,.06-.06.12-.06.18-.12.72-.3,1.44-.3,2.16v1.44c0,.36,0,.72.18,1.02-.06.18-.12.3-.18.42.12.24.18.48.18.72v1.62c0,.12-.06.3,0,.42.18.48.12.96.12,1.44,0,.6-.12,1.2.12,1.74-.06.72.06,1.38.12,2.04,0,.12-.06.3,0,.42.24.54.12,1.08.3,1.62.12.3.06.66.18.96.12.3-.06.72.18,1.02.18,1.08.42,2.16.66,3.24.36,1.38.72,2.76,1.2,4.08.18.54.48.96.9,1.38.3-.06.54.18.84.24.54-.3,1.14-.12,1.68-.24.3-.18.3-.42.18-.72-.06-.12-.12-.24-.06-.42.06-.12.18-.3.24-.42.06-.54-.18-1.02-.24-1.5-.12-.66-.3-1.32-.3-2.04v-1.44c0-.12-.06-.3,0-.42.18-.48.12-.96.12-1.44,0-.12,0-.24.06-.36.36-1.2.54-2.46.78-3.72.12-.6.3-1.2.42-1.8.06-.36.24-.72.3-1.08.06-.36.12-.72.3-1.02.3-.66.3-1.44.78-2.04.06-.06.06-.18.06-.24.06-.24.12-.48.24-.72.18-.36.24-.72.3-1.08.06-.42.12-.84.36-1.2.18-.24.3-.54.36-.84.18-.66.48-1.2.96-1.62.18-.3.36-.6.48-.9.3-.54.72-.96.96-1.5.12-.3.36-.54.6-.72.6-.54,1.26-1.02,1.92-1.5.18-.12.42-.24.72-.24.06.06.18.12.24.18.24.48.24.96.24,1.44v1.8c0,.18-.06.36,0,.48.18.36.12.72.12,1.08v7.38c0,.24-.06.48,0,.66.18.36.12.72.12,1.08.06.72-.06,1.44.18,2.16v.24c0,.6-.12,1.2.12,1.74v.24c0,.72-.06,1.44.18,2.16.06.24,0,.54-.06.84-.06.3.18.54.18.84,0,.78.24,1.5.42,2.22.3.9.6,1.8.96,2.7.3.72.66,1.38,1.2,1.86.9.36,1.74.78,2.7.54.36-.42.72-.9,1.26-1.2.06-.06.12-.12.18-.18.24-.42.6-.72.84-1.08.36-.54.72-1.08,1.2-1.5.18-.18.36-.36.36-.66-.24-.3-.54-.18-.84-.18Zm-18.9-33.96c0-.12,0-.24.06-.36.18-.3.12-.6.12-.9,0-.42,0-.84.12-1.26.18-.48.3-1.02.36-1.5.06-.24.12-.42.24-.6.42-.72.72-1.56,1.26-2.28.06-.06.06-.12.06-.18.18-.54.42-1.08.66-1.62.06-.12.12-.24.18-.36.18-.6.48-1.08.96-1.5.06-.06.12-.18.18-.3.18-.42.48-.72.78-1.02s.6-.66.9-.96c.66-.6,1.38-1.14,2.1-1.68.3-.24.48-.54.84-.72.54.12.9.42,1.08.9v.18c.12.36.24.66.36.96-.18.3-.36.6-.48.9-.36.72-.72,1.44-1.02,2.16-.18.42-.42.78-.72,1.14-.48.54-.96,1.08-1.38,1.68-.24.36-.54.66-.78.96-.3.36-.6.72-.84,1.14-.18.36-.54.54-.66.9-.54.6-.9,1.32-1.38,1.98-.06.12-.12.24-.24.36-.36.36-.72.66-.96,1.08-.66.6-1.2,1.32-1.74,2.04-.06.06-.12.12-.18.18,0-.12-.06-.24-.06-.3.18-.3.18-.66.18-1.02Zm86.04,12.6l-.36.36c-.06.18-.06.36-.06.54v1.08c0,.66-.06,1.32-.18,1.98v.54c0,.12,0,.24-.06.36-.06.12-.06.24,0,.36.06.12.06.24.06.36-.12.66-.12,1.32-.3,1.98-.12.36-.24.72-.24,1.14v.12c-.18.18-.12.36-.06.54-.18.24-.3.54-.3.9,0,.3-.24.54-.3.78-.18.48-.54.9-.66,1.44-.24.18-.24.48-.42.72-.18.18-.36.42-.6.48-.3.12-.48.36-.72.54s-.48.42-.78.6c-.06.06-.06.12-.12.18-.24,0-.48.06-.54.3h-.36c-.18.24-.48.36-.78.42s-.6.12-.96.18c-.78.06-1.5-.18-2.16-.54-.3-.12-.6-.24-.84-.42-.12-.12-.3-.18-.48-.18-.24-.18-.3-.48-.54-.66-.06-.24-.18-.48-.24-.72-.12-.36-.24-.78-.06-1.2.06-.12.12-.24.06-.42.12-.12.24-.24.36-.36.36.36.48.84.66,1.26.24.24.54.36.84.48.18.06.42.06.6,0,.12-.06.24-.06.36-.06.06,0,.12,0,.18-.06.42-.18.9-.24,1.32-.36.18-.06.42-.06.48-.36,0-.06.06-.06.12-.12.06-.06.12-.12.18-.18.18-.36.54-.6.78-.96.12-.18.3-.3.42-.48.36-.54.6-1.14.72-1.8.06-.18.06-.42.24-.6v-.42c.18-.18.24-.36.24-.6,0-.12,0-.24.06-.36.12-.24.18-.48.18-.72.06-.06.12-.12.18-.18,0-.48.06-.9.24-1.32,0-.24-.06-.48.06-.72.06-.06.06-.18,0-.24-.06-.12,0-.24.06-.36.06-.3.06-.54-.06-.84-.06-.12-.06-.24,0-.36.12-.3.06-.6.06-.9,0-.42,0-.84.06-1.26,0-.12.06-.24,0-.36v-.06c.18-.42-.06-.84,0-1.26v-.18c-.18-.3-.3-.66-.48-.96-.06-.06-.12-.06-.18-.12-.24.06-.48.18-.78.12-.24.24-.48.54-.78.78-.36.3-.54.72-.96.96-.12.36-.54.54-.54.96,0,.06-.06.06-.12.12-.18.24-.36.48-.48.78-.18.06-.3.24-.42.42-.18.3-.36.54-.54.78-.48.78-.96,1.56-1.44,2.34-.12.24-.18.48-.24.72-.06.18-.18.36-.12.6-.24.3-.3.66-.48.96-.18.3-.3.66-.54.96-.06.12-.12.24-.12.36,0,.3-.24.48-.18.78-.24.24-.24.6-.36.9-.12.24-.12.54-.18.84-.06.12-.12.24-.18.36-.18.3-.3.6-.42.9-.06.24-.18.48-.18.78,0,.12-.06.24-.12.3-.3.24-.3.6-.42.9-.06.12-.06.3-.12.42.06.24.06.48-.06.66-.12.12-.12.3-.06.48.12.3.06.6-.06.9.06.12.12.24.18.36-.12.36-.12.78,0,1.2-.06.18-.18.36-.06.54,0,.54.06,1.08-.06,1.62.18.18.18.42.18.66,0,.06.06.12.06.18,0,.18.18.36.12.6-.06.18.06.36,0,.54,0,.12,0,.24-.06.36-.06.12-.06.24.06.36.12.12.12.3.06.48-.06.24-.06.48,0,.72,0,.12-.12.18-.12.3s.12.18.12.36c-.06.18-.12.42.12.6,0,.06-.06.12-.06.18.06.3-.06.6,0,.9.06.18-.06.24-.12.36,0,.06.06.12.06.18,0,.42.12.84-.06,1.26v.18q0,.42-.18.72c0,.12.12.18.18.3-.06.36-.3.72-.12,1.08-.12.48-.12.9.06,1.32q-.12.36.06.66c0,.12-.06.24,0,.36.12.24.18.48.24.78.06.3.06.6.12.9v.36c.06.3-.06.6-.12.9,0,.12.06.18.06.3-.12.18-.18.36-.06.6.06.12,0,.3,0,.48-.18.24-.12.6-.36.78-.12.18.06.3,0,.48-.24.36-.36.9-.9.9l-.06.06c-.36.6-.9.66-1.5.6-.54-.3-.84-.78-1.08-1.32v-.18c-.42-.6-.48-1.32-.42-2.04,0-.06,0-.12.06-.18.06-.18,0-.36-.06-.54.06-.12.12-.24.18-.36-.12-.3-.06-.66-.18-1.02.12-.54-.12-1.02-.12-1.56,0-.24,0-.54-.06-.78v-.18c0-.36-.06-.72-.18-1.08-.06-.18-.06-.42-.06-.66.06-.42-.12-.84-.12-1.26-.12-.18.06-.36.06-.54-.06-.42.06-.84-.06-1.26-.06-.12,0-.24.06-.36-.06-.06-.12-.12-.18-.18.12-.18-.06-.48.18-.6,0-.18-.06-.3-.18-.42.12-.3,0-.6-.06-.9-.06-.24.06-.42,0-.66-.06-.18-.06-.36-.06-.54,0-.24,0-.48-.06-.72-.06-.18-.06-.36-.06-.54.06-.36-.06-.72,0-1.08-.18-.36,0-.72-.12-1.08-.06-.12-.06-.24-.06-.36,0-.36-.06-.72-.18-1.08,0-.12,0-.18.06-.3.06-.24.06-.48,0-.72-.06-.12-.06-.24,0-.36.06-.12,0-.42,0-.54-.06-.3.12-.42.06-.72-.06-.18-.06-.42,0-.6.06-.24,0-.48.12-.72.06-.06,0-.18,0-.3-.06-.3-.06-.6.06-.96-.18-.3.06-.66,0-1.02,0-.06.06-.12.12-.18-.06-.18-.12-.36-.06-.6.06-.06.12-.18.18-.24.06-.3-.06-.6.06-.9-.18-.3,0-.6-.06-.9-.06-.3,0-.66.06-.96,0-.06.06-.12.06-.18-.18-.36,0-.72,0-1.08s.06-.72.18-1.08c.06-.12-.06-.24-.06-.36.12-.3.06-.66.06-.96.06-.42.06-.84.12-1.26v-.36c0-.42.06-.84,0-1.26,0-.12,0-.24.06-.36v-.24c-.18-.3.06-.6-.06-.9.12-.18.06-.36.06-.54v-1.08c-.06-.84.12-1.62.12-2.46,0-.18,0-.36-.12-.48.12-.36.24-.72.36-1.08.18-.12.3-.12.42,0,.18.18.42.3.66.3.18.18.42.3.6.48.48.42,1.02.84,1.2,1.5.06.18.12.3.24.42s.18.24.24.42c.06.18.12.36.24.54s.12.36.12.54c0,.42,0,.84.12,1.26.06.18.18.42.12.66v.18c.12.48.06.96.06,1.44,0,.66.06,1.32.12,1.98.06.3.12.66,0,.96-.06.24.06.42.06.72.18-.48.3-.9.42-1.32.12-.36.24-.72.36-1.08.18-.48.42-.9.66-1.32.12-.24.24-.48.36-.72.36-.54.72-1.08,1.08-1.68.18-.3.36-.6.6-.84.18-.24.36-.48.48-.78.12-.24.36-.42.54-.66.24-.3.42-.6.66-.84.48-.42.9-.84,1.32-1.26.18-.18.48-.24.72-.42.36-.3.78-.48,1.26-.54.12,0,.24-.06.42-.12.3.06.54.18.84.24.24.06.48.12.66.3.12.12.36.12.6.18.24.3.54.42.84.6.3.18.72.72.78,1.08.06.24.24.42.3.66.12.36.24.66.36.96.06.18,0,.36.12.48-.12.48,0,.9.18,1.32Zm-18.78,2.46c-.06-.24-.12-.48-.18-.72l.36.12c-.48-.3-1.02-.48-1.62-.48s-1.26-.12-1.86.12c-.12.06-.24.06-.36-.12-.06-.42-.06-.9.12-1.32-.3-.6-.12-1.2-.18-1.8-.06-.18-.24-.36-.24-.54,0-.42-.24-.66-.42-.96-.24-.48-.6-.84-1.08-1.14-.54-.3-1.08-.66-1.56-1.02-.3-.24-.66-.36-1.02-.48-.3-.12-.6-.12-.9,0-1.02.36-2.1.66-3.06,1.26-.42.24-.84.48-1.14.84-.3.3-.6.66-.96.9-.78.54-1.38,1.26-1.92,2.04l-.36.36c-.42.6-.96,1.08-1.32,1.74-.42.36-.6.84-.9,1.26-.6.9-1.14,1.86-1.68,2.82-.06.06-.06.24-.24.18v-.9c0-.36-.06-.72,0-1.02s-.06-.6-.06-.9c0-.12.06-.24.06-.36s.06-.24,0-.3c-.12-.3,0-.6,0-.9v-3.42c0-.6-.12-1.14-.36-1.68-.06-.18-.12-.36-.18-.48-.48-.72-1.08-1.14-1.86-1.32-.18-.18-.3-.3-.48-.42-.42.06-.78-.24-1.14-.36-.18,0-.3.06-.36.18-.12.48-.24.96-.36,1.38-.06.18-.06.36,0,.54.06.12,0,.24,0,.36.06.36-.06.72-.06,1.08v1.26c0,.18,0,.36-.06.48-.12.24-.12.48-.12.72,0,.54.06,1.08-.06,1.56-.11.51-.12,1.02-.12,1.53-.04.07-.09.13-.12.21-.24.9-.6,1.68-1.02,2.46-.24.42-.48.78-.72,1.2-.54,1.02-1.2,1.98-1.8,2.94-.3.54-.66,1.02-1.02,1.5-.48.6-.9,1.2-1.38,1.74-.42.42-.84.84-1.26,1.26-.48.48-1.02.84-1.56,1.26-.36.3-.78.54-1.14.84-.72.6-1.56.96-2.34,1.38-.6.3-1.26.24-1.92.36-.3-.18-.6-.06-.96-.12-.24-.12-.54-.3-.78-.42-.3-.42-.42-.84-.72-1.2-.06-.06-.06-.18-.06-.3-.12-.6-.42-1.2-.3-1.86-.24-.54-.12-1.14-.12-1.74,0-.36-.06-.72.06-1.02.12-.42.12-.84.12-1.26s.06-.84.24-1.26c.3-.3.6-.42.9-.54l-.12-.18c.78-.3,1.44-.84,2.22-1.14.24-.12.48-.3.72-.42.78-.42,1.62-.78,2.34-1.32.06-.06.12-.12.18-.12.48,0,.84-.3,1.26-.48.72-.3,1.44-.6,2.28-.96.18-.18.42-.48.72-.78.06-.24.12-.48.18-.72-.24-.54-.72-.84-1.02-1.32-.18-.3-.48-.54-.72-.78-.06-.06-.12-.06-.18-.12-.48-.3-.9-.6-1.32-.96-.36-.36-.84-.6-1.38-.66-.18-.06-.36-.12-.54-.18-.84-.24-1.68-.42-2.58-.3-.24.24-.66.3-1.02.42-.78.3-1.44.84-2.1,1.32-.3.18-.6.42-.84.66-.24.24-.48.54-.78.78-.24.24-.36.6-.6.84-.36.36-.6.78-.9,1.2-.06.12-.12.24-.18.36-.3.36-.54.78-.72,1.2l-1.26,2.88c-.18.36-.24.78-.18,1.2,0,.36,0,.72-.18,1.02.12.24.12.48.12.72.06.72.24,1.44.18,2.16,0,.06.06.12.12.18.06.18.06.36.06.54,0,.96.36,1.8.9,2.58.36.6.78,1.2,1.38,1.62.12.12.24.24.3.36.36.6.96.9,1.44,1.38.06.06.18.06.24.12.66.42,1.38.72,2.16.96.78.24,1.56.42,2.34.12.12-.06.24-.06.36-.06.54.06,1.02-.06,1.5-.24.72-.24,1.5-.48,2.16-.96.12-.06.24-.12.36-.18.6-.18,1.02-.6,1.5-.96.42-.3.78-.66,1.2-.96.6-.48,1.2-.96,1.8-1.44.48-.36.84-.9,1.38-1.2.06-.06.12-.12.12-.18.06-.24.24-.36.42-.54.48-.48.96-.96,1.44-1.44.18-.18.36-.37.53-.57,0,.05,0,.1.01.15.12.3-.12.54-.12.78.06.18.12.36.18.54-.18.48-.18.96-.06,1.44.12.66.12,1.38-.12,2.1.12.24.12.54.12.84v4.86c0,.12.06.3,0,.42-.36.6.06,1.2-.12,1.8.24.36.06.72-.06,1.08.18.18.06.42.12.66.06.24,0,.48-.06.72.18.24.12.54.12.84v9.54c0,.78.18,1.5.18,2.28,0,.3.24.6.3.9.12.72.48,1.26,1.02,1.74.06.18.12.36.18.54.06.18.18.3.36.42.42.12.78.36,1.26.18.36-.24.72-.54.72-1.02,0-.3.24-.48.36-.78v-1.44c0-.42,0-.78.18-1.14.12-.3.12-.6.12-.96v-3.96c0-.24.06-.48,0-.66-.24-.54-.18-1.08,0-1.62l-.18-.36c.18-.36.18-.72.12-1.08,0-.06-.06-.12-.06-.18.12-.42,0-.84.06-1.26,0-.12-.06-.3,0-.42.18-.36.12-.72.12-1.08v-4.14c0-.24,0-.48.06-.66.12-.3.12-.54.12-.84v-1.98c0-.36.06-.72,0-1.08-.06-.42,0-.84,0-1.26.24-.36.12-.72,0-1.08.3-.3.18-.66.24-1.02.24-.66.66-1.26.66-1.98,0-.06.06-.12.06-.18.3-1.08.78-2.04,1.26-3,.24-.48.42-.96.6-1.5.3-.72.54-1.5,1.02-2.16.48-.66.9-1.38,1.38-2.04.42-.54.78-1.14,1.14-1.68.06-.12.12-.3.24-.36.3-.12.42-.36.6-.6.42-.6.9-1.14,1.38-1.68.48-.54,1.02-1.02,1.56-1.5.48-.36.96-.72,1.44-1.08.48-.3,1.26-.54,1.86-.54.06,0,.12.06.18.06.36.3.36.78.48,1.2-.18.24-.12.54-.12.84,0,.24.06.54,0,.78-.18.36-.18.72-.18,1.08,0,.78-.18,1.5-.36,2.22-.72.54-1.56.84-2.22,1.44-.78.36-1.38.9-2.1,1.32-.66.42-1.38.84-1.98,1.32-.66.54-1.2,1.2-1.8,1.8-.12.12-.24.3-.42.42-.42.24-.72.6-.96,1.02,0,.06-.06.06-.12.12-.18-.06-.3-.18-.48-.12-.36.3-.48.72-.6,1.14-.18.6-.24,1.2-.42,1.74-.12.36-.12.78-.06,1.14.12.48.12,1.02.42,1.5.36.12.48.48.66.72.6.3,1.14.54,1.74.72s1.2.24,1.8.48c.3-.18.66-.12,1.02-.3.3-.12.6-.24.96-.18.36.06.72-.12,1.08,0,.78-.3,1.32-.9,1.92-1.44.48-.42.9-.9,1.38-1.32.72-.66,1.14-1.56,1.5-2.46.12-.3.18-.66.36-.96s.06-.72.3-1.02c-.06-.42.12-.78.24-1.14.12-.48.3-.96.36-1.44.12-.6.3-1.2.48-1.8.18-.48.36-.96.42-1.5,0-.24.06-.48.12-.6.72-.72,1.62-.72,2.28-1.08.66-.06,1.2-.06,1.68.12.18-.06.3-.12.36-.3Zm-38.94-1.08c.54-.24.9-.72,1.38-1.14h.72v.06c.18.06.36.12.48.3.36.48.72.9,1.08,1.32-.12.24-.36.3-.6.36-.54.18-1.02.42-1.5.66-.18.12-.36.18-.54.24-.12.06-.24.12-.36.18l-2.16,1.26c-.24.12-.48.18-.72.24-.18.06-.3.3-.6.3.66-1.5,1.68-2.7,2.82-3.78Zm30.36,4.92v.3c-.06.24-.12.48-.18.66-.06.18-.12.36-.18.54-.06.24-.06.48-.12.72-.06.18-.06.42-.12.66-.6,1.26-1.32,2.46-2.16,3.6-.3.42-.72.78-1.08,1.14-.36.06-.66.18-.96.24s-.6.18-.84.36c-.42.3-.9.42-1.44.42h-.6c-.42-.54-.66-1.14-.66-1.86.06-.12.18-.24.24-.36.24-.78.72-1.38,1.26-1.98.18-.18.42-.36.66-.48.18-.12.36-.24.48-.42.36-.48.84-.84,1.32-1.2.3-.24.6-.48.84-.78.24-.24.6-.3.9-.54.42-.3.9-.48,1.32-.78.42-.3.9-.54,1.32-.84h.18c-.06.24-.12.42-.18.6Zm54.72,6.72c-.12.06-.18.18-.24.3l-.3.18c-.3.54-.6,1.08-1.02,1.56-.42.54-.84,1.08-1.2,1.68-.48.72-.96,1.44-1.62,2.04-.12.12-.24.3-.36.48-.12.12-.24.18-.36.18-.54-.48-.66-1.2-.96-1.8.06-.3-.24-.48-.36-.72,0-.36,0-.72-.18-1.08-.06-.18-.18-.36-.06-.54-.18-.36,0-.78-.12-1.08-.24-.48-.06-1.02-.3-1.44v-3.24c0-.18,0-.36-.06-.48-.12-.24-.12-.54-.12-.84v-5.04c0-.3,0-.6.12-.9.12-.24.12-.54,0-.78-.12-.24-.12-.48-.12-.72v-1.44c-.12-.18-.24-.36-.3-.54-.24-.54-.66-.84-1.2-.96-.24-.42-.6-.78-.96-1.02-.78-.54-1.62-.96-2.58-1.14-.24-.06-.48-.06-.66-.12-.96-.3-1.86-.12-2.76.3-.36.18-.72.36-1.08.54-.54.24-1.02.6-1.44,1.02-.72.72-1.44,1.44-2.04,2.28-.96,1.26-1.32,1.92-1.8,3.42-.18.48-.36.96-.54,1.44-.48,1.26-.9,2.52-.78,3.9,0,.36-.06.72.12,1.02,0,.48.24.96.24,1.44s.12.96.36,1.38c.48.72,1.02,1.38,1.98,1.62.54.12,1.08-.12,1.62-.24.48-.12.9-.42,1.26-.78.9-.84,1.62-1.8,2.28-2.82.6-.9,1.2-1.8,1.86-2.7.6-.78,1.14-1.56,1.68-2.4.06-.06.12-.12.24,0v2.1c0,.36,0,.66.18.9-.06.24-.12.42-.12.6v2.34c0,.06,0,.18.06.24.18.3.12.66.12.96,0,.18-.06.36,0,.48.12.24.18.48.18.72s.18.42.24.66c.12.78.24,1.56.6,2.28.06.12.06.24.06.36.18.78.48,1.56.78,2.34.18.54.54.96.72,1.5.06.12.18.24.3.36.42.48.9.84,1.5,1.08.36.12.72.3,1.08.48h.36c.96,0,1.74-.42,2.28-1.2.18-.24.42-.42.6-.6.06-.18.06-.3.12-.42.24-.36.48-.72.72-1.08.18-.3.36-.6.48-.96.12-.54.36-1.02.6-1.5.36-.66.66-1.38.96-2.04.06-.48-.06-.96.18-1.38-.06-.12-.12-.18-.24-.18Zm-11.52-14.22c.12.3-.24.54.06.72-.48.72-.96,1.44-1.44,2.16-.24.36-.54.72-.84,1.08-.72.96-1.44,1.92-2.16,2.94-.3.42-.54.9-.84,1.32-.78,1.14-1.56,2.28-2.34,3.48-.12.18-.3.36-.42.48-.12.06-.18,0-.24-.06,0-.24.18-.54-.12-.72.06-.18.12-.36.12-.54,0-.48.12-.9.3-1.32.18-.54.24-1.14.3-1.68.06-.36.24-.72.12-1.08.12-.18.3-.3.3-.42.06-.6.42-1.08.66-1.62.12-.24.24-.48.36-.72.3-.6.72-1.14,1.2-1.62.36-.36.72-.72,1.08-1.08.36-.36.78-.6,1.26-.78.72-.3,1.44-.48,2.1-.78.3,0,.48.24.72.18l-.18.06Zm31.2-2.22c-.18.12-.36.24-.48.42-.78.06-1.38-.42-1.56-1.14-.12-.54-.12-1.08-.06-1.62,0-.12-.06-.24-.06-.36-.06-.42-.12-.84-.36-1.2-.42-.12-.84-.06-1.26.18-.24.12-.54.24-.84.3-.3.3-.66.54-1.02.72-.24.12-.42.3-.6.48-.18.18-.36.36-.6.48-.36.18-.6.48-.78.78-.12.18-.36.3-.48.54-.12.18-.3.36-.42.54-.36.48-.84.84-1.14,1.38-.18.36-.48.66-.6,1.02-.24.6-.54,1.14-.84,1.68-.06.12-.06.24-.12.36-.06.12-.12.3-.24.42-.24.24-.3.54-.36.78-.06.18-.12.42-.18.6-.12.36-.18.72-.18,1.14,0,.18-.06.36-.12.54-.12.36-.24.78-.48,1.08-.12.12-.06.3-.12.42-.06.3-.12.6-.06.9.06.24-.06.54-.12.78-.12.48-.3.96-.48,1.44,0,.06-.06.06-.06.12.06.3,0,.66,0,.96,0,.12-.06.3,0,.42.06.06.06.12,0,.18-.06.06-.06.12-.06.18.12.54.12,1.08,0,1.62v.18c.06.3-.06.6-.06.9,0,.12,0,.24-.06.36,0,.06-.06.12-.06.18.12.24.06.54.12.78.12.48.06.96.18,1.44.12.3.06.6,0,.9-.06.3-.06.6.06.9-.06.36-.42.66-.18,1.02,0,.12-.12.18-.12.24.06.12.18.24.18.36s-.12.18-.18.24c-.12.18-.24.36-.18.6v.18c0,.12-.06.18-.12.3-.18.12-.42.24-.6.42-.24.24-.6.24-.9.12-.3-.12-.6-.12-.96-.3-.3-.24-.48-.66-.66-1.08-.24-.6-.36-1.2-.48-1.8-.06-.36-.24-.72-.3-1.08-.12-.6-.3-1.2-.42-1.86-.06-.24-.18-.42-.24-.66-.12-.6-.3-1.2-.42-1.8-.12-.54-.18-1.08-.24-1.62v-.18c0-.54-.12-1.08-.18-1.62-.06-.54-.18-1.08-.24-1.62-.06-.6-.12-1.2-.18-1.8-.06-.54-.12-1.08-.18-1.62-.18-1.38-.12-2.76-.12-4.14,0-.36-.06-.78,0-1.14.06-.3.06-.6.12-.9.06-.36.18-.72.12-1.08-.06-.24.06-.48.12-.72.06-.42.12-.84.24-1.26.06-.36.12-.72.3-1.08.18-.3.3-.66.36-1.02.06-.36.24-.66.3-1.02.06-.3.12-.6.18-.9.06-.3.12-.6.3-.9.12-.18.24-.3.48-.3.42.06.84.18,1.26.42.24.36.54.78.66,1.32-.18.54-.12,1.08,0,1.62.06.24.18.48.06.72v.18c.18.54.18,1.08.24,1.62.06.24.12.48.12.72,0,.18,0,.36-.12.54.12.18.18.42.18.66s.06.48.12.72c.12.42.12.9.24,1.38.06.36.18.72.24,1.14,0,.3,0,.6.18.9.3-.6.6-1.2.78-1.86.18-.54.42-1.08.72-1.56.42-.66.84-1.32,1.26-1.98.18-.24.42-.42.6-.66.66-.84,1.38-1.62,2.16-2.34.42-.42.9-.78,1.38-1.14.36-.24.78-.48,1.2-.72.6-.36,1.2-.66,1.92-.78.3-.06.6-.12.9-.06.18,0,.42-.06.6-.06.54,0,1.02.18,1.5.42.3.18.54.42.78.66.18.18.24.42.42.6.06.06.12.18.18.24.3.24.48.6.6.96l.3-.18c.12.36.24.72.24,1.14s-.12.78-.36,1.08c-.18.3-.42.42-.66.54Zm26.4-23.4c-.18-.18.06-.36-.06-.6-.18-.12-.42-.3-.72-.54-.24,0-.48-.18-.72-.36-.24.06-.42.06-.6,0-.3.06-.42.3-.6.48s-.48.24-.66.54c0,.24,0,.48-.06.72l-.42-.18c-.12.54-.24,1.08-.42,1.62-.24.66-.48,1.32-.72,1.98-.24.72-.36,1.44-.66,2.1-.12.3-.12.66-.24.96-.24.48-.3,1.02-.6,1.5-.12.18-.18.36-.18.54-.12.78-.3,1.56-.48,2.34-.06.24-.12.48-.24.72-.12.36-.3.72-.36,1.08-.12.66-.54,1.2-.54,1.86,0,.12-.06.24-.12.36-.06.12-.12.24-.12.36,0,.48-.24.9-.36,1.38-.24.96-.48,1.92-.84,2.82-.06.24-.12.48-.18.72-.12.42-.12.9-.42,1.26-.18.06-.3-.06-.42-.12-.36-.3-.78-.42-1.2-.54-.12,0-.24-.06-.36-.06q-.96-.24-1.98,0c-.24.06-.48.18-.72.18-.54-.06-1.02.12-1.44.36-.6.36-1.26.66-1.74,1.2-.06.06-.12.12-.18.18-.36.18-.6.48-.84.72s-.54.42-.84.66c-.78.66-1.38,1.5-2.04,2.22-.06.06-.06.12-.06.18-.54.9-1.14,1.74-1.56,2.7-.36.78-.78,1.56-1.2,2.34-.12.24-.24.48-.3.72-.12.48-.24.96-.48,1.44-.24.48-.3,1.02-.42,1.56-.18.78-.42,1.56-.36,2.4,0,.12,0,.24-.06.36-.18.54-.06,1.08-.06,1.62.18.3.18.6.12.9-.06.3.12.54.12.84,0,.48.06.96.12,1.44.06.36.18.72.36,1.08.3.66.78,1.2,1.32,1.68.42.42.78.78,1.38.9.18.06.36.18.48.24.6.06,1.08-.06,1.56-.24.18-.18.36-.36.54-.54.18-.06.36-.12.54-.24.6-.36,1.02-.9,1.38-1.5.24-.42.42-.9.78-1.32.36-.42.48-.96.72-1.44.3-.6.6-1.2.84-1.86.18-.42.3-.84.66-1.14.06-.06.12-.12.12-.18,0-.18.06-.3.18-.42.3-.3.48-.66.66-1.02.18-.3.36-.6.54-.9.18-.3.3-.66.48-.96.12-.24.12-.54.18-.78.06-.12.06-.24.12-.3.36-.42.48-.96.78-1.44.18-.3.36-.6.42-.96,0-.06.06-.18.24-.06v1.56c0,.18,0,.36.06.54.12.24.12.48.12.72v1.26c0,.18,0,.36.06.48.12.3.06.6.06.9,0,.36-.06.78.06,1.14.12.48.12.96.12,1.44,0,.12,0,.24.06.3.18.3.12.66.12.96,0,.18.06.36.12.54.12.3.24.6.24.9,0,.36.12.66.18,1.02,0,.12.06.24.06.36.06.6.3,1.14.48,1.68.12.48.42.9.54,1.32.18.54.48,1.02.78,1.5.18.24.36.48.42.78.12.06.24.12.36.18.42.3.9.42,1.38.42h2.16c.24-.18.48-.36.72-.54.06-.12.12-.3.24-.36.48-.3.66-.84,1.02-1.26.12-.12.18-.3.18-.42-.06-.3.18-.48.12-.72l-.18-.36c.3-.66.6-1.26.9-1.86,0-.06.06-.12.06-.18-.12-.3.12-.48.24-.72.18-.36.54-.66.6-1.08-.18-.06-.36,0-.48.06-.3.18-.54.42-.78.6-.36.3-.6.72-.9,1.08-.42.42-.78.9-1.08,1.38-.12.24-.3.48-.48.72-.06.12-.18.24-.36.18-.12-.3-.3-.6-.42-.9-.18-.36-.36-.72-.42-1.08-.06-.42-.24-.78-.36-1.14,0-.42-.06-.84-.12-1.26-.12-.54-.24-1.08-.3-1.62-.06-.6-.24-1.14-.18-1.74,0-.24-.06-.48-.12-.72-.12-.42-.18-.9-.24-1.38-.06-.6,0-1.2,0-1.8,0-.18.06-.36.12-.54-.12-.18-.12-.42-.12-.66v-1.26c0-.54.12-1.02.24-1.5.12-.54.3-1.08.3-1.68,0-.3-.06-.66.06-.9.24-.6.3-1.26.66-1.8v-1.14c.12-.36.3-.66.36-1.02.18-.78.42-1.56.6-2.34.12-.54.3-1.08.36-1.62.06-.72.24-1.44.36-2.16.24-.3.12-.72.3-1.02.18-.3.18-.66.36-.96.18-.3.18-.66.36-.96.18-.3.18-.66.3-.96.12-.3,0-.6.12-.9.18-.48.12-1.02.3-1.5-.06-.36.12-.66.24-1.02.06-.18.12-.36.18-.54.18-.78.3-1.62.6-2.4.12-.3.18-.6.18-.9,0-.42.12-.78.24-1.14,0-.12.06-.24.06-.36,0-.66.18-1.32.36-1.92.12-.42.18-.84.18-1.26,0-.12,0-.24.06-.36.24-.54.12-1.08.12-1.62Zm-11.94,26.58c-.66,1.62-1.32,3.24-2.16,4.8-.36.66-.78,1.32-1.14,1.98-.12.18-.24.36-.3.54-.3.66-.6,1.32-.9,1.98-.3.66-.66,1.32-.96,1.98-.54,1.14-1.2,2.22-1.86,3.24-.12.18-.18.36-.24.54-.3.66-.66,1.26-.96,1.92-.24.48-.6.78-1.14,1.02-.54-.54-.84-1.26-1.26-1.8-.06-.54.06-1.02-.18-1.44-.06-.12,0-.3,0-.42,0-.9,0-1.8-.06-2.7,0-.3.18-.54.12-.84-.06-.3.12-.54.18-.78.12-.3.3-.6.3-.96,0-.12.06-.24.12-.36.18-.54.42-1.08.54-1.68.06-.12.12-.24.18-.36.12-.12.24-.24.3-.42.3-.84.78-1.56,1.26-2.28.3-.42.48-.9.78-1.32.36-.48.72-1.02,1.26-1.38.24-.18.42-.42.54-.66.6-.36,1.08-.72,1.5-1.14l-.12-.3c.36-.42.84-.6,1.26-.9.12-.06.3,0,.42,0,.18-.12.36-.24.54-.42.42,0,.84-.18,1.26-.3.42,0,.78.24,1.2.18.12,0,.3.12.42.3-.3.66-.6,1.32-.9,1.98Z"/></svg>